<svg width="28" height="28" viewBox="0 0 28 28" fill="none" xmlns="http://www.w3.org/2000/svg">
<path fill-rule="evenodd" clip-rule="evenodd" d="M5.0347 4.375C4.59306 2.1 6.35962 0 8.65615 0C10.6877 0 12.3659 1.6625 12.3659 3.675V8.225C12.8959 8.225 13.4259 8.1375 13.9558 8.1375C14.4858 8.1375 14.9274 8.1375 15.4574 8.225V3.675C15.4574 1.6625 17.1356 0 19.1672 0C21.4637 0 23.2303 2.1 22.877 4.375L21.9054 9.7125C25.3502 11.2 28 13.825 28 17.0625V19.075C28 21.7875 26.2334 24.0625 23.6719 25.55C21.1104 27.125 17.7539 28 13.9558 28C10.1577 28 6.80126 27.125 4.23975 25.55C1.76656 24.0625 0 21.7875 0 19.075V17.0625C0 13.825 2.56151 11.2 6.00631 9.7125L5.0347 4.375ZM20.5804 10.4125L21.7287 4.1125C21.9937 2.5375 20.8454 1.05 19.1672 1.05C17.7539 1.05 16.6057 2.1875 16.6057 3.5875V9.3625C16.2524 9.275 15.8107 9.275 15.4574 9.275C14.9274 9.275 14.4858 9.1875 13.9558 9.1875C13.4259 9.1875 12.8959 9.1875 12.3659 9.275C12.0126 9.275 11.571 9.3625 11.2177 9.3625V3.675C11.2177 2.275 10.0694 1.1375 8.65615 1.1375C7.06625 1.1375 5.82965 2.625 6.18297 4.2L7.33123 10.5C3.62145 11.9 1.14826 14.35 1.14826 17.15V19.1625C1.14826 23.45 6.88959 26.95 13.9558 26.95C21.0221 26.95 26.7634 23.45 26.7634 19.1625V17.15C26.8517 14.2625 24.3785 11.8125 20.5804 10.4125Z" fill="#BBF247"/>
<path fill-rule="evenodd" clip-rule="evenodd" d="M6.1827 4.2002C5.82939 2.6252 7.06598 1.1377 8.65589 1.1377C10.0691 1.1377 11.2174 2.2752 11.2174 3.67519V9.45019C12.1007 9.36269 12.984 9.2752 13.9556 9.2752C14.8389 9.2752 15.7221 9.36269 16.6054 9.45019V3.67519C16.6054 2.2752 17.7537 1.1377 19.1669 1.1377C20.7568 1.1377 21.9934 2.6252 21.7284 4.2002L20.5802 10.5002C24.29 11.9002 26.8515 14.3502 26.8515 17.1502C26.8515 21.4377 21.1101 24.9377 14.0439 24.9377C6.97765 24.9377 1.23633 21.4377 1.23633 17.1502C1.23633 14.3502 3.70951 11.9002 7.41929 10.5002L6.1827 4.2002ZM10.4227 16.5376C10.4227 17.6751 9.80438 18.6376 9.00943 18.6376C8.21448 18.6376 7.59618 17.6751 7.59618 16.5376C7.59618 15.4001 8.21448 14.4376 9.00943 14.4376C9.80438 14.4376 10.4227 15.4001 10.4227 16.5376ZM18.8138 18.6376C19.6088 18.6376 20.2271 17.6751 20.2271 16.5376C20.2271 15.4001 19.6088 14.4376 18.8138 14.4376C18.0189 14.4376 17.4006 15.4001 17.4006 16.5376C17.4006 17.6751 18.0189 18.6376 18.8138 18.6376Z" fill="#BBF247"/>
</svg>
